<?xml version="1.0" encoding="UTF-8"?>
<svg id="Laag_2" data-name="Laag 2" xmlns="http://www.w3.org/2000/svg" viewBox="0 0 442.92 506.99">
  <defs>
    <style>
      .cls-1 {
        fill: #00b700;
      }

      .cls-2 {
        fill: #c6c6c6;
      }

      .cls-3 {
        fill: #1938bc;
      }

      .cls-4 {
        fill: #007500;
      }

      .cls-5 {
        fill: #001070;
      }
    </style>
  </defs>
  <g id="Layer_1" data-name="Layer 1">
    <g>
      <path class="cls-1" d="M308.61,0s51.36,78.89-35.47,178.42c-86.83,99.53-69.89,228.72,31.77,270.01-60.36-66.71-60.36-138.71-2.12-198.01,58.24-59.3,52.94-124.95,52.94-124.95,0,0,23.3,56.65-42.35,132.36-72.16,83.21-9.53,155.65-9.53,155.65,0,0,309.72-267.36,4.76-413.49Z"/>
      <circle class="cls-2" cx="75.93" cy="381.46" r="33.35" transform="translate(-247.49 165.41) rotate(-45)"/>
      <circle class="cls-2" cx="147.35" cy="441.07" r="25.36"/>
      <circle class="cls-2" cx="25.36" cy="304.42" r="25.36" transform="translate(-207.83 107.1) rotate(-45)"/>
      <circle class="cls-2" cx="214.9" cy="475.96" r="19.06" transform="translate(-289.34 611.85) rotate(-80.78)"/>
      <circle class="cls-2" cx="284.42" cy="488.3" r="15.51" transform="translate(-261.97 344.13) rotate(-45)"/>
      <circle class="cls-2" cx="20.76" cy="217.23" r="15.51" transform="translate(-81.55 24.48) rotate(-22.5)"/>
      <circle class="cls-2" cx="349.91" cy="493.75" r="13.24"/>
      <circle class="cls-2" cx="25.36" cy="152.79" r="13.24" transform="translate(-129.17 142.37) rotate(-76.72)"/>
      <circle class="cls-2" cx="404.65" cy="495.66" r="10.27"/>
      <circle class="cls-2" cx="42.57" cy="106.42" r="10.27"/>
      <path class="cls-5" d="M299.93,4.76s36.74,74.12-49.03,170.48c-85.77,96.36-72.77,221.51,8.47,264.76C82.54,384.9,16.89,235.6,71.95,106.42c24.35,97.42,223.56,42.37,227.98-101.65Z"/>
      <circle class="cls-5" cx="163.44" cy="58.93" r="54.16"/>
      <path class="cls-3" d="M163.44,12.47c-3.42,0-6.74.39-9.95,1.1,25.11.62,45.29,21.13,45.29,46.39,0,22.23-15.63,40.8-36.5,45.36.39,0,.77.06,1.16.06,25.65,0,46.45-20.8,46.45-46.45s-20.8-46.45-46.45-46.45Z"/>
      <path class="cls-3" d="M71.16,157.09s-37.33,160.57,138.18,252.69c-78.62-52.41-135.8-139.28-138.18-252.69Z"/>
      <path class="cls-4" d="M338,29.38s74.65,34.15,88.15,117.53c13.5,83.39-34.28,163.37-118.39,244.09,62.01-81.29,183.51-233.91,30.24-361.62Z"/>
    </g>
  </g>
</svg>